<svg width="67" height="67" xmlns="http://www.w3.org/2000/svg">
 <g>
  <title>Dribble</title>
  <path id="svg_1" fill-rule="evenodd" clip-rule="evenodd" fill="#EC4A89" d="m45.998199,23.272997c-0.030598,0.044199 -2.691666,3.887333 -9.238934,6.562002c0.385334,0.791065 0.758198,1.595734 1.102734,2.40493c0.122398,0.290134 0.242535,0.5746 0.358131,0.85907c5.697269,-0.717403 11.309532,0.489601 11.549801,0.538334c-0.038532,-3.931534 -1.446133,-7.538935 -3.771732,-10.364336zm-6.767132,12.442869c2.174862,5.9772 3.058865,10.846001 3.227734,11.8456c3.722996,-2.5126 6.368198,-6.503067 7.105999,-11.124798c-0.34227,-0.109936 -4.980999,-1.578735 -10.333733,-0.720802zm0.434067,13.36087c-0.244801,-1.448402 -1.208138,-6.528008 -3.541668,-12.592468c-0.037403,0.012463 -0.073666,0.0238 -0.111065,0.036263c-9.784069,3.411335 -12.980072,10.285 -13.014071,10.360935c2.815201,2.189598 6.346666,3.51107 10.193197,3.51107c2.296135,-0.001137 4.483471,-0.469204 6.473606,-1.3158zm-4.181999,-21.713539c6.257133,-2.343733 8.618999,-5.939798 8.659798,-6.002134c-2.919468,-2.573799 -6.753532,-4.134398 -10.951405,-4.134398c-1.347532,0 -2.655397,0.163198 -3.907728,0.464666c0.248198,0.332066 3.362597,4.464199 6.199335,9.671865zm-0.490738,6.373871c-0.415936,-0.944069 -0.870396,-1.888136 -1.345268,-2.818604c-8.539665,2.556801 -16.732533,2.373199 -17.026066,2.360733c-0.004532,0.179066 -0.013599,0.351334 -0.013599,0.530403c0,4.260197 1.607067,8.144135 4.248867,11.080597c-0.005665,-0.009064 4.533335,-8.060265 13.482132,-10.9548c0.215336,-0.072533 0.436337,-0.137135 0.653934,-0.19833zm17.222134,-3.838602c0.261803,1.277264 0.396667,2.593065 0.396667,3.910002c0,1.314667 -0.133732,2.628201 -0.396667,3.90773c-0.25613,1.250069 -0.635799,2.477467 -1.132195,3.650467c-0.485069,1.152599 -1.086872,2.262131 -1.790672,3.298c-0.692467,1.027935 -1.491467,1.99353 -2.368664,2.873001c-0.879471,0.876064 -1.846203,1.675068 -2.873001,2.37093c-1.038136,0.700401 -2.1488,1.302204 -3.299133,1.790672c-1.173,0.495266 -2.400402,0.873798 -3.648201,1.129929c-1.280663,0.262936 -2.596466,0.398933 -3.911137,0.398933c-1.316931,0 -2.63273,-0.134865 -3.911129,-0.398933c-1.248936,-0.25613 -2.477468,-0.635796 -3.649334,-1.129929c-1.151466,-0.488468 -2.262135,-1.090271 -3.300266,-1.790672c-1.0268,-0.695862 -1.993536,-1.493729 -2.870735,-2.37093c-0.878332,-0.879471 -1.676201,-1.845066 -2.370934,-2.873001c-0.700399,-1.03587 -1.303332,-2.146534 -1.790666,-3.298c-0.4964,-1.173 -0.8772,-2.400398 -1.134468,-3.650467c-0.259533,-1.27953 -0.392132,-2.593063 -0.392132,-3.90773c0,-1.316936 0.132599,-2.632738 0.393267,-3.910002c0.257265,-1.250069 0.636933,-2.4786 1.133333,-3.649336c0.487333,-1.154865 1.090266,-2.2644 1.790666,-3.300264c0.6936,-1.030201 1.492601,-1.993536 2.370934,-2.874136c0.877199,-0.874931 1.843935,-1.671665 2.870735,-2.367533c1.038132,-0.702667 2.1488,-1.305599 3.300266,-1.794066c1.171865,-0.496399 2.400398,-0.876067 3.649334,-1.131067c1.278399,-0.260666 2.594198,-0.3944 3.911129,-0.3944c1.314671,0 2.630474,0.132601 3.911137,0.3944c1.247799,0.255 2.475201,0.635801 3.648201,1.131067c1.151466,0.488467 2.260998,1.091399 3.299133,1.794066c1.026798,0.695868 1.994667,1.491468 2.873001,2.367533c0.876064,0.8806 1.676197,1.843935 2.368664,2.874136c0.7038,1.035864 1.305603,2.146532 1.790672,3.300264c0.497532,1.170736 0.877197,2.399267 1.132195,3.649336zm-19.940998,-1.534534c-2.870733,-5.099998 -5.937534,-9.2616 -6.158537,-9.557402c-4.625132,2.183935 -8.076132,6.4464 -9.152798,11.582666c0.437466,0.003401 7.348534,0.090666 15.311335,-2.025265zm-33.273536,-28.363935l68.000003,0l0,68.000003l-68.000003,0l0,-68.000003z"/>
 </g>
</svg>