<svg width="67" height="67" xmlns="http://www.w3.org/2000/svg">
 <g>
  <title>YouTube</title>
  <path id="svg_1" fill-rule="evenodd" clip-rule="evenodd" fill="#CF3427" d="m44.797268,41.074001c-0.315067,0 -0.541733,0.085793 -0.679996,0.268398c-0.137138,0.170498 -0.204002,0.4664 -0.204002,0.875599l0,0.985603l1.748734,0l0,-0.985603c0,-0.4081 -0.070271,-0.703995 -0.209671,-0.875599c-0.13147,-0.182606 -0.354733,-0.268398 -0.655064,-0.268398zm-6.8204,-0.035202c0.265198,0 0.472595,0.085796 0.616528,0.254097c0.1394,0.169403 0.209671,0.421295 0.209671,0.751305l0,5.041294c0,0.314606 -0.06007,0.535706 -0.173397,0.672104c-0.113335,0.139698 -0.290138,0.209 -0.532673,0.209c-0.167732,0 -0.325264,-0.037399 -0.477131,-0.106705c-0.153004,-0.068199 -0.310532,-0.186993 -0.470337,-0.344299l0,-6.084095c0.134869,-0.134205 0.27087,-0.234303 0.408005,-0.298107c0.137131,-0.064896 0.276531,-0.094593 0.419334,-0.094593zm5.937531,3.683903l0,1.840302c0,0.514793 0.064606,0.870098 0.192669,1.071396c0.133732,0.198002 0.354736,0.295902 0.670937,0.295902c0.32753,0 0.556465,-0.083603 0.686798,-0.251904c0.129196,-0.168297 0.198334,-0.538994 0.198334,-1.114296l0,-0.444405l2.034332,0l0,0.500504c0,1.002102 -0.245934,1.756702 -0.744598,2.265999c-0.493004,0.503799 -1.234203,0.754597 -2.219067,0.754597c-0.885136,0 -1.5844,-0.266193 -2.093269,-0.804092c-0.507729,-0.534603 -0.766129,-1.272701 -0.766129,-2.215401l0,-4.384602c0,-0.844799 0.282196,-1.537804 0.840931,-2.070198c0.558735,-0.532406 1.2784,-0.799702 2.165802,-0.799702c0.905533,0 1.601395,0.247498 2.08873,0.741398c0.486202,0.492802 0.7276,1.202297 0.7276,2.128502l0,2.4893l-3.78307,0l0,-0.0033zm-3.541664,4.221798c-0.307133,0.369598 -0.758198,0.551098 -1.345268,0.551098c-0.388733,0 -0.732132,-0.068199 -1.0336,-0.210098c-0.302597,-0.143002 -0.588196,-0.3619 -0.845467,-0.662205l0,0.749104l-1.999199,0l0,-13.235195l1.999199,0l0,4.261395c0.2686,-0.295898 0.549667,-0.5247 0.847736,-0.677597c0.302597,-0.155098 0.605198,-0.232098 0.912334,-0.232098c0.627865,0 1.104996,0.207893 1.433666,0.621498c0.333195,0.416901 0.496395,1.027401 0.496395,1.825996l0,5.418598c0,0.690804 -0.155266,1.219906 -0.465797,1.589504zm-8.687002,0.427898l0,-1.073601c-0.368336,0.397095 -0.745733,0.6996 -1.143532,0.904202c-0.395535,0.210094 -0.777466,0.311298 -1.149202,0.311298c-0.458998,0 -0.799,-0.143002 -1.034733,-0.435596c-0.227798,-0.292603 -0.345667,-0.723804 -0.345667,-1.307907l0,-8.164192l1.976534,0l0,7.490997c0,0.232098 0.041933,0.398201 0.121267,0.500496c0.087267,0.105602 0.222134,0.1562 0.405733,0.1562c0.145067,0 0.330935,-0.068199 0.553068,-0.206802c0.223267,-0.137497 0.424999,-0.310196 0.614265,-0.522491l0,-7.4184l1.976534,0l0,9.765797l-1.974268,0zm-6.847599,-11.312405l0,11.312405l-2.2304,0l0,-11.312405l-2.305202,0l0,-1.922794l6.840803,0l0,1.922794l-2.305201,0zm9.155066,-6.183096c0,-0.002195 13.690666,0.019802 15.315868,1.594999c1.630867,1.5774 1.648998,9.364304 1.648998,9.409401c0,0 -0.013596,7.828701 -1.648998,9.411602c-1.625198,1.572998 -15.315868,1.607094 -15.315868,1.607094s-13.689533,-0.034096 -15.318132,-1.608196c-1.629734,-1.577396 -1.633133,-9.352203 -1.633133,-9.411598c0,-0.043999 0.004532,-7.832001 1.633133,-9.409401c1.629732,-1.575199 15.318132,-1.596096 15.318132,-1.593901zm10.796135,-4.096399l-2.228134,0l0,-1.188c-0.405735,0.436699 -0.834129,0.773296 -1.280666,0.999901c-0.444267,0.228798 -0.873798,0.343199 -1.292,0.343199c-0.519066,0 -0.903267,-0.160603 -1.163933,-0.481802c-0.259537,-0.320097 -0.391003,-0.799698 -0.391003,-1.442099l0,-8.990299l2.223602,0l0,8.246698c0,0.254101 0.050999,0.4389 0.143932,0.5522c0.090672,0.114403 0.244801,0.171602 0.452206,0.171602c0.16206,0 0.370598,-0.074802 0.621067,-0.226603c0.249329,-0.1507 0.479397,-0.343199 0.685661,-0.5786l0,-8.165298l2.228134,0l0,10.7591l0.001133,0zm-12.096066,-1.8337c0.157532,0.161699 0.384197,0.2409 0.679996,0.2409c0.301472,0 0.539467,-0.0814 0.718536,-0.2453c0.177929,-0.1672 0.266331,-0.393799 0.266331,-0.679798l0,-5.859699c0,-0.235403 -0.090664,-0.425703 -0.273129,-0.570904c-0.181339,-0.144098 -0.419334,-0.215597 -0.711739,-0.215597c-0.273132,0 -0.492996,0.071499 -0.664135,0.215597c-0.167728,0.145201 -0.254997,0.335501 -0.254997,0.570904l0,5.859699c0,0.293697 0.0816,0.520298 0.239136,0.684198zm-1.630869,-8.453499c0.598404,-0.493898 1.406469,-0.7425 2.416265,-0.7425c0.920269,0 1.677338,0.2607 2.267803,0.783199c0.585934,0.5203 0.8806,1.191301 0.8806,2.009703l0,5.557201c0,0.919598 -0.289001,1.638996 -0.863602,2.164797c-0.581402,0.523603 -1.3736,0.785398 -2.386799,0.785398c-0.972397,0 -1.753267,-0.270599 -2.339197,-0.809601c-0.581402,-0.540096 -0.874937,-1.267197 -0.874937,-2.181299l0,-5.574799c-0.001133,-0.835999 0.298067,-1.4993 0.899866,-1.9921zm-6.965469,-4.293301l-2.526199,0l2.985201,8.803299l0,5.777201l2.508068,0l0,-6.050001l2.9172,-8.530499l-2.550001,0l-1.548134,5.827801l-0.157534,0l-1.628601,-5.827801zm-24.096933,-13.199999l68.000004,0l0,66l-68.000004,0l0,-66z"/>
 </g>
</svg>