<svg width="67" height="67" xmlns="http://www.w3.org/2000/svg">
 <g>
  <title>Skype</title>
  <path id="svg_1" d="m35.84,46.380001c-4.82,0.256001 -7.075001,-0.832001 -9.142,-2.810001c-2.308001,-2.209 -1.381001,-4.727997 0.499001,-4.854c1.879,-0.127998 3.007,2.171001 4.01,2.812c1.001999,0.639 4.812,2.091 6.826,-0.257999c2.190998,-2.554001 -1.458,-3.875 -4.133999,-4.274998c-3.819,-0.576 -8.642002,-2.684002 -8.267002,-6.836002c0.375,-4.149 3.457001,-6.276999 6.700001,-6.577c4.133999,-0.382999 6.825001,0.638 8.953999,2.491001c2.461002,2.139999 1.129002,4.532 -0.438,4.724998c-1.562,0.191 -3.314999,-3.519999 -6.760998,-3.576c-3.551003,-0.056999 -5.950001,3.768002 -1.567001,4.854c4.383999,1.086002 9.082001,1.532001 10.771999,5.618c1.692001,4.088001 -2.629002,8.429001 -7.452,8.686001zm13.591999,-9.724003c0.09,-0.68 0.143002,-1.372002 0.143002,-2.075001c0,-8.445999 -6.784,-15.293999 -15.152,-15.293999c-0.832001,0 -1.647003,0.07 -2.441002,0.202c-1.423998,-0.940998 -3.117998,-1.488998 -4.939999,-1.488998c-4.996,0 -9.042,4.107 -9.042,9.174999c0,1.844 0.535,3.556999 1.455999,4.994999c-0.123999,0.785999 -0.188,1.591 -0.188,2.41c0,8.447002 6.781,15.294003 15.150999,15.294003c0.944,0 1.865002,-0.093002 2.759003,-0.257c1.388,0.874001 3.025997,1.382999 4.779999,1.382999c4.994999,0 9.042,-4.106998 9.042,-9.174999c0,-1.916 -0.577,-3.697002 -1.568001,-5.169003zm17.568001,30.344002l-67,0l0,-67l67,0l0,67z" fill="#3E9DD7"/>
 </g>
</svg>