<svg width="67" height="67" xmlns="http://www.w3.org/2000/svg">
 <g>
  <title>GooglePlus</title>
  <path id="svg_1" fill-rule="evenodd" clip-rule="evenodd" fill="#D6492F" d="m3.05743,19.440046c0,6.605082 3.470599,16.380381 11.924882,16.380381c2.455552,0 4.97475,-0.62645 6.590569,-2.468948c1.843613,-2.112732 2.567215,-4.893232 2.567215,-6.314751c0,-7.104229 -4.118265,-18.152533 -12.272166,-18.152533c-2.557167,0 -5.306401,1.2797 -6.882017,3.255083c-1.670534,2.072533 -1.928483,4.730204 -1.928483,7.300768zm6.970232,20.317747c-4.461082,0 -7.334265,-0.953629 -10.027666,-3.192547l0,-25.511367c5.602317,-4.638634 11.755151,-5.412483 16.910801,-5.508517l20.77335,0l-5.517452,4.451033l-6.024414,0c2.413116,2.091517 6.013252,5.833468 6.013252,12.496616c0,7.297419 -3.845802,10.756855 -7.975237,14.008587c-1.278582,1.279701 -2.751465,2.664371 -2.751465,4.837399c0,2.165215 1.472883,3.350002 2.5527,4.238869l3.542065,2.75705c4.323734,3.651497 9.972948,7.009312 9.970716,13.817635c0,1.825748 -0.301502,2.980377 -0.876583,4.842979l-5.87925,0.004471c0.021217,-0.278053 0.018984,-0.461189 0.018984,-0.993835c0,-5.040634 -4.805017,-7.696068 -12.281101,-13.025921c-0.782782,-0.101612 -1.274117,-0.101612 -2.252316,-0.101612c-0.888867,0 -6.196383,0.199883 -10.325815,1.582317c-1.418169,0.517014 -3.869252,0.848663 -5.898235,3.604599l0,-5.173519c5.611249,-2.408649 11.383301,-2.522549 15.139769,-2.776028c-1.37797,-1.778851 -2.948002,-3.651505 -2.948002,-6.705589c0,-1.676117 0.492449,-2.664368 0.982666,-3.850266c-1.083166,0.098267 -2.16075,0.197647 -3.146768,0.197647zm-10.027666,-39.757797l67.000004,0l0,17.945947l-12.510021,0l0,-12.46423l-5.341015,0l0,12.46423l-12.465351,0l0,5.233818l12.465355,0l0,12.575899l5.341011,0l0,-12.575899l12.510021,0l0,43.820238l-67.000004,0l0,-67.000004z"/>
 </g>
</svg>