<svg width="67" height="67" xmlns="http://www.w3.org/2000/svg">
 <g>
  <title>RSS</title>
  <path id="svg_1" d="m43.433998,47.745998l5.268002,0c0,-15.100002 -12.285,-27.393 -27.383001,-27.393l0,5.252001c12.191,0 22.115,9.932999 22.115,22.140999zm-9.309998,0.005001l0,0l5.274002,0c0,-9.975998 -8.114002,-18.087 -18.082003,-18.087l0,5.250002c3.419001,0 6.635,1.336998 9.054001,3.758999c2.421,2.416 3.754,5.645 3.754,9.077999zm-9.16,0.006001c2.02,0 3.651001,-1.623001 3.651001,-3.634998c0,-1.999001 -1.632,-3.640003 -3.651001,-3.640003c-2.011,0 -3.646,1.641003 -3.646,3.640003c-0.001001,2.011997 1.633999,3.634998 3.646,3.634998zm-24.964001,-47.757l67,0l0,67l-67,0l0,-67z" fill="#E19126"/>
 </g>
</svg>