<svg width="67" height="67" xmlns="http://www.w3.org/2000/svg">
 <g>
  <title>Dropbox</title>
  <path id="svg_1" fill-rule="evenodd" clip-rule="evenodd" fill="#4D95D0" d="m41.657249,45.074249l3.451618,-2.070297l0,1.882698l-11.635662,7.547554l-11.376602,-7.598923l0,-1.77438l3.403599,2.015583l0.378551,0.224449l0.349516,-0.267998l7.349897,-5.640285l7.347668,5.640285l0.351749,0.269115l0.379665,-0.227802zm-8.055634,-21.283663l11.190117,6.428648l-11.291733,7.482784l-11.22138,-7.069616l11.322996,-6.841816zm19.43,0.3752l-11.528465,-7.36665l-7.926098,6.646399l-7.747435,-6.646399l-11.862349,7.727331l8.168415,6.214251l-8.168415,6.214252l8.127098,4.815063l3.73525,2.210999l7.747435,-5.944016l7.745197,5.944016l3.786617,-2.271301l7.923866,-4.754761l-7.565418,-6.485601l7.564301,-6.303583zm-53.031613,-24.165784l66.999997,0l0,66.999997l-66.999997,0l0,-66.999997z"/>
 </g>
</svg>