<svg width="67" height="67" xmlns="http://www.w3.org/2000/svg">
 <g>
  <title>Instagram</title>
  <path id="svg_1" d="m44.271,26.577999l0,-0.006001c0.501999,0 1.004002,0.01 1.507999,-0.001999c0.646,-0.017 1.172001,-0.570002 1.172001,-1.217001c0,-0.963999 0,-1.927999 0,-2.890999c0,-0.691 -0.547001,-1.240002 -1.236,-1.241001c-0.960999,0 -1.922001,-0.000999 -2.882999,0c-0.688,0.000999 -1.236,0.552999 -1.236,1.243c0,0.955 -0.004002,1.91 0.003998,2.865c0,0.143 0.027,0.291 0.072002,0.426001c0.174,0.507999 0.639,0.82 1.209,0.823c0.463001,0.001001 0.927998,0 1.389999,0zm-9.271,1.239c-3.384001,-0.002001 -6.135,2.720999 -6.181999,6.088999c-0.049002,3.459003 2.719999,6.201 6.040001,6.271c3.454998,0.074001 6.247997,-2.685997 6.321999,-6.042c0.074001,-3.459999 -2.717999,-6.319998 -6.18,-6.317999zm-11.954,3.299l0,0.081999c0,4.514999 -0.000999,9.030003 0,13.545002c0,0.648998 0.562,1.208 1.212,1.208c7.16,0.000999 14.319,0.000999 21.479,0c0.656002,0 1.216,-0.559002 1.216,-1.212002c0.000999,-4.510998 0,-9.02 0,-13.528l0,-0.094l-2.912998,0c0.410999,1.313002 0.536999,2.650999 0.375999,4.014002c-0.160999,1.362999 -0.602001,2.632999 -1.315998,3.802998c-0.716,1.174 -1.644001,2.146 -2.779003,2.917999c-2.942997,2.006001 -6.82,2.183002 -9.944998,0.429001c-1.579,-0.885998 -2.819,-2.120998 -3.684999,-3.711998c-1.289001,-2.375 -1.495001,-4.866001 -0.739,-7.452002c-0.969002,-0.000999 -1.931002,-0.000999 -2.906002,-0.000999zm24.159002,18.139002c0.158001,-0.026001 0.318001,-0.049 0.474998,-0.083c1.246002,-0.264999 2.264,-1.304001 2.508003,-2.556999c0.024998,-0.137001 0.044998,-0.272999 0.066998,-0.409l0,-24.412001c-0.021,-0.132999 -0.040001,-0.268 -0.064999,-0.400999c-0.268002,-1.366001 -1.396,-2.428001 -2.778999,-2.617001c-0.059002,-0.007999 -0.113003,-0.021 -0.170002,-0.030001l-24.480001,0c-0.146999,0.026001 -0.296,0.047001 -0.441,0.08c-1.351999,0.308001 -2.351999,1.396 -2.545,2.766001c-0.007999,0.058001 -0.02,0.114 -0.028999,0.171l0,24.478001c0.028,0.154999 0.049999,0.312 0.084999,0.466c0.299,1.321999 1.427,2.348 2.77,2.52c0.064001,0.007999 0.130001,0.021 0.195,0.029999l24.409002,0l0,-0.001999zm-47.205002,-49.255001l67,0l0,67l-67,0l0,-67z" fill="#517FA6"/>
 </g>
</svg>