<svg width="67" height="67" xmlns="http://www.w3.org/2000/svg">
 <g>
  <title>Twitter</title>
  <path id="svg_1" d="m37.167,22.283001c-2.618999,0.952999 -4.273998,3.410999 -4.085999,6.101l0.063,1.038l-1.048,-0.126999c-3.813,-0.487001 -7.145,-2.139002 -9.974001,-4.915001l-1.382999,-1.377001l-0.356001,1.017c-0.754,2.268 -0.271999,4.661001 1.299,6.271c0.838001,0.890001 0.649,1.017 -0.796,0.487001c-0.503,-0.169001 -0.942999,-0.296001 -0.984999,-0.233c-0.146002,0.148998 0.355999,2.076 0.754,2.839001c0.545,1.059998 1.654999,2.098999 2.870998,2.711998l1.027,0.487l-1.215,0.021c-1.172998,0 -1.215,0.021 -1.088999,0.466999c0.418999,1.377003 2.073999,2.839001 3.917999,3.475002l1.299,0.444l-1.131001,0.677998c-1.675999,0.976002 -3.646,1.524002 -5.615999,1.567001c-0.944,0.021 -1.719,0.105999 -1.719,0.168999c0,0.211998 2.556999,1.396999 4.044001,1.862999c4.462999,1.376999 9.764997,0.784 13.746,-1.565998c2.828999,-1.674 5.657001,-5 6.978001,-8.221001c0.713001,-1.715 1.425999,-4.852001 1.425999,-6.354c0,-0.975 0.062,-1.101999 1.236,-2.267c0.691002,-0.678999 1.34,-1.418999 1.466999,-1.630999c0.209003,-0.403 0.188004,-0.403 -0.880997,-0.044001c-1.781002,0.636999 -2.033001,0.552 -1.152,-0.400999c0.649998,-0.678001 1.425999,-1.907001 1.425999,-2.268002c0,-0.062 -0.313999,0.042 -0.671001,0.233c-0.376999,0.212 -1.216,0.530001 -1.844997,0.720001l-1.131001,0.361l-1.026001,-0.700001c-0.565998,-0.381001 -1.361,-0.805 -1.780998,-0.931999c-1.070004,-0.295 -2.705002,-0.253 -3.669003,0.086zm-37.167,-22.283001l67,0l0,67l-67,0l0,-67z" fill="#598DCA"/>
 </g>
</svg>