<svg width="67" height="67" xmlns="http://www.w3.org/2000/svg">
 <g>
  <title>Vimeo</title>
  <path id="svg_1" d="m16.556999,29.106001c0,0 2.816,-2.221001 3.754999,-1.110001c0.939001,1.111 4.521,14.509001 5.718,16.980001c1.044001,2.167999 3.924,5.031998 7.081001,2.985001c3.156998,-2.046001 13.653,-11.007 15.529999,-21.588001c1.879002,-10.579 -12.629002,-8.363001 -14.166,0.854c3.841999,-2.306 5.892002,0.937 3.925999,4.608c-1.960999,3.668001 -3.753998,6.060999 -4.691998,6.060999c-0.937,0 -1.658001,-2.454998 -2.731001,-6.744999c-1.108999,-4.436001 -1.103001,-12.424 -5.716,-11.518999c-4.351,0.854 -10.068,7.681999 -10.068,7.681999l1.363,1.792zm-16.556999,-29.106001l67,0l0,67l-67,0l0,-67z" fill="#63B4E4"/>
 </g>
</svg>