<svg width="67" height="67" xmlns="http://www.w3.org/2000/svg">
 <linearGradient y2="0.000227" x2="0.499619" y1="1.000123" x1="0.499619" id="SVGID_2_">
  <stop stop-color="#000000" offset="0"/>
  <stop stop-color="#000000" offset="1"/>
 </linearGradient>
 <g>
  <title>Evernote</title>
  <path id="svg_1" d="m66.971001,66.986l-66.942001,0.014l0,-67l66.941001,0.045l0,66.941l0.000999,0z" fill="#699B22"/>
  <g id="SMqkte_1_">
   <g id="svg_2">
    <g id="svg_3">
     <linearGradient y2="-0.000078" x2="0.499971" y1="0.999988" x1="0.499971" id="SVGID_1_">
      <stop stop-color="#121212" offset="0"/>
      <stop stop-color="#0F0F0F" offset="0.4954"/>
      <stop stop-color="#050505" offset="0.869"/>
      <stop stop-color="#000000" offset="1"/>
     </linearGradient>
     <path id="svg_4" d="m33.667999,37.303001c-0.373001,1.438 -0.816002,3.251999 -1.312,5.049c-0.284,1.021 -1.01,1.602001 -2.065001,1.390999c-3.934999,-0.785 -7.896,-1.495998 -11.755999,-2.57c-0.914,-0.253998 -1.862999,-1.718998 -2.112999,-2.785999c-1.007001,-4.312 -1.920001,-8.663 -2.525001,-13.045c-0.444,-3.216 1.080999,-4.638 4.363,-4.733999c1.286999,-0.038 2.577999,-0.018002 3.865999,-0.050001c1.388,-0.034 1.885,-0.517 1.914,-1.931c0.032,-1.473 -0.028999,-2.946 0,-4.419c0.038,-2.019 0.970001,-3.175 2.940001,-3.587c2.428001,-0.507 4.885,-0.447001 7.206001,0.37c0.933998,0.329 1.821999,1.202 2.377998,2.058c0.443001,0.685 0.807999,0.865001 1.561001,0.931001c3.327,0.290999 6.668999,0.530999 9.960999,1.072c2.605003,0.429 3.729,1.811999 3.875,4.391c0.344002,6.007 0.908001,12.027 0.771,18.027c-0.125,5.424 -0.852997,10.866001 -3.218998,15.917999c-0.93,1.980003 -2.310001,3.449001 -4.535999,3.479c-2.873001,0.041 -5.764999,-0.139 -8.624001,-0.438c-1.678001,-0.174 -2.707001,-1.463997 -2.878002,-3.086998c-0.181999,-1.709999 -0.188,-3.475002 0.036003,-5.174999c0.229,-1.739002 1.553997,-2.833004 3.303997,-2.997002c1.225002,-0.113998 2.468002,-0.021 3.755001,-0.021c0,1.112999 0,2.136002 0,3.233002c-0.539001,0.028999 -0.985001,0.063999 -1.436001,0.080997c-1.065998,0.041 -1.888,0.297001 -1.864998,1.636002c0.023998,1.445 0.342999,1.889999 1.833,1.951c1.329998,0.056999 2.668999,0.058998 3.993999,-0.040001c1.203999,-0.085999 1.966999,-0.786999 1.943001,-2.061001c-0.029003,-1.552002 -0.038002,-3.118999 -0.259003,-4.653c-0.266998,-1.877998 -1.361,-2.723 -3.245998,-2.924c-1.413002,-0.151001 -2.826,-0.333 -4.221001,-0.608002c-2.495998,-0.487 -3.401001,-1.724998 -3.645,-4.460999zm7.617001,-5.053001c1.563999,0.193001 3.034,0.373001 4.504002,0.553001c0.204998,-1.724001 -0.440002,-2.752001 -1.901001,-2.945002c-1.506001,-0.195999 -2.355999,0.584 -2.603001,2.392z" fill="url(#SVGID_1_)"/>
    </g>
   </g>
  </g>
  <path id="svg_5" d="m15.643,19.441999c2.106001,-2.203001 4.545,-4.749001 7.033001,-7.352c0,2.136 -0.037001,4.117 0.015999,6.093999c0.025,0.945002 -0.264,1.308001 -1.257,1.277c-2.080999,-0.064999 -4.17,-0.018999 -5.792,-0.018999z" fill="url(#SVGID_2_)"/>
 </g>
</svg>