<svg width="67" height="67" xmlns="http://www.w3.org/2000/svg">
 <g>
  <title>LinkedIn</title>
  <path id="svg_1" d="m49.837002,48.137001l0,-11.712002c0,-6.274 -3.350998,-9.194 -7.814999,-9.194c-3.604,0 -5.220001,1.982 -6.118999,3.372999l0,-2.893999l-6.791002,0c0.09,1.917 0,20.429001 0,20.429001l6.791002,0l0,-11.41c0,-0.609001 0.042999,-1.220001 0.223999,-1.655998c0.489998,-1.219002 1.605999,-2.482002 3.480999,-2.482002c2.459,0 3.439999,1.873001 3.439999,4.618l0,10.929001l6.789001,0l0,-0.000999zm-27.878002,-23.215c2.367001,0 3.842001,-1.569 3.842001,-3.531c-0.044001,-2.003 -1.475,-3.528 -3.797001,-3.528c-2.322001,0 -3.841,1.525 -3.841,3.528c0,1.962 1.473999,3.531 3.753,3.531l0.042999,0zm3.395,23.215l0,-20.427002l-6.789,0l0,20.426998l6.789,0l0,0.000004zm-25.354,-48.137001l67,0l0,67l-67,0l0,-67z" fill="#007AB9"/>
 </g>
</svg>