<svg width="67" height="67" xmlns="http://www.w3.org/2000/svg">
 <g>
  <title>WordPress</title>
  <path d="m57.224197,33.5c0,13.578671 -10.848198,24.591232 -24.224197,24.591232c-13.377102,0 -24.224201,-11.012562 -24.224201,-24.591232s10.847099,-24.591234 24.224201,-24.591234c13.375999,0 24.224197,11.012569 24.224197,24.591234zm-1.439899,0c0,12.772434 -10.202499,23.129517 -22.784286,23.129517s-22.784312,-10.357082 -22.784312,-23.129517s10.2025,-23.129517 22.784301,-23.129517s22.784298,10.357086 22.784298,23.129517zm-43.614999,0c0,-3.127783 0.6699,-6.098118 1.8722,-8.770302l10.045201,27.885399c-7.043301,-3.391312 -11.917401,-10.675327 -11.917401,-19.115097zm20.830701,21.146317c-2.107601,0 -4.1404,-0.319366 -6.057701,-0.910088l6.416302,-18.66843l6.614296,18.361347c-2.180199,0.787254 -4.525394,1.217171 -6.972897,1.217171zm20.8307,-21.146317c0,7.99868 -4.376904,14.959984 -10.8339,18.553417l6.497704,-18.679596c1.006496,-2.891056 1.940399,-6.797155 1.825996,-9.942802c1.600498,2.99378 2.510201,6.423065 2.510201,10.068981zm-6.7397,-15.570799c-3.709198,-3.46055 -8.656998,-5.574401 -14.091,-5.574401c-7.326,0 -13.7698,3.841334 -17.4823,9.649117c2.366098,-0.023451 4.906,-0.051367 7.437098,-0.188719c0.108902,-0.005583 0.199102,0.094919 0.199102,0.21105l0,1.266304c0,0.116131 -0.0891,0.20993 -0.199102,0.20993l-2.411198,0c-0.270601,0 -0.383902,0.165268 -0.289301,0.447783l7.564701,22.622549l4.6035,-14.107964l-3.0602,-8.494484c-0.111101,-0.308201 -0.243101,-0.467884 -0.7139,-0.467884l-2.116402,0c-0.1089,0 -0.199099,-0.094915 -0.199099,-0.21105l0,-1.265184c0,-0.116131 0.090199,-0.215517 0.199099,-0.21105c3.9391,0.178669 7.902403,0.177551 11.889898,0c0.109993,-0.004467 0.199104,0.094919 0.199104,0.21105l0,1.265184c0,0.116135 -0.089111,0.21105 -0.199104,0.21105l-2.1054,0c-0.416901,0 -0.5522,0.196533 -0.435612,0.540468l7.447018,22.26745l2.734581,-8.448704c3.305504,-10.213034 -2.829185,-11.29508 -2.677383,-16.37368c0.073696,-2.511383 1.8876,-3.607952 3.705887,-3.558817l0.000011,0zm-47.091,-17.929201l66.000001,0l0,67l-66.000001,0l0,-67z" fill="#454545" clip-rule="evenodd" fill-rule="evenodd" id="svg_1"/>
 </g>
</svg>