<?xml version="1.0" encoding="utf-8"?>
<!-- Generator: Adobe Illustrator 16.0.4, SVG Export Plug-In . SVG Version: 6.00 Build 0)  -->
<!DOCTYPE svg PUBLIC "-//W3C//DTD SVG 1.1//EN" "http://www.w3.org/Graphics/SVG/1.1/DTD/svg11.dtd">
<svg version="1.1" id="Icon" xmlns="http://www.w3.org/2000/svg" xmlns:xlink="http://www.w3.org/1999/xlink" x="0px" y="0px"
	 width="1008px" height="612px" viewBox="0 0 1008 612" enable-background="new 0 0 1008 612" xml:space="preserve">
<linearGradient id="SVGID_1_" gradientUnits="userSpaceOnUse" x1="57.0137" y1="483.9404" x2="68.5137" y2="483.9404" gradientTransform="matrix(53.1254 0 0 53.1254 -3028.8752 -25403.8223)">
	<stop  offset="0" style="stop-color:#6B9911"/>
	<stop  offset="1" style="stop-color:#6B9911"/>
</linearGradient>
<path fill="url(#SVGID_1_)" d="M610.941,611.346L0,611.471V0l610.941,0.405V611.346z"/>
<g id="SMqkte_1_">
	<g>
		<g>
			
				<linearGradient id="SVGID_2_" gradientUnits="userSpaceOnUse" x1="162.4629" y1="501.832" x2="162.4629" y2="535.1719" gradientTransform="matrix(12.75 0 0 -12.75 -1767.875 6916.875)">
				<stop  offset="0" style="stop-color:#121212"/>
				<stop  offset="0.4954" style="stop-color:#0F0F0F"/>
				<stop  offset="0.869" style="stop-color:#050505"/>
				<stop  offset="1" style="stop-color:#000000"/>
			</linearGradient>
			<path fill="url(#SVGID_2_)" d="M307.007,339.947c-3.404,13.119-7.459,29.669-11.972,46.078
				c-2.589,9.308-9.219,14.611-18.857,12.687c-35.904-7.165-72.063-13.655-107.279-23.46c-8.351-2.32-17.008-15.683-19.29-25.424
				c-9.192-39.359-17.531-79.062-23.052-119.06c-4.055-29.35,9.868-42.33,39.83-43.209c11.743-0.344,23.524-0.166,35.279-0.459
				c12.661-0.306,17.2-4.717,17.468-17.621c0.293-13.438-0.268-26.89,0-40.328c0.345-18.424,8.849-28.981,26.839-32.742
				c22.159-4.628,44.574-4.08,65.765,3.379c8.517,2.996,16.626,10.965,21.7,18.781c4.042,6.248,7.369,7.892,14.242,8.492
				c30.37,2.652,60.868,4.845,90.907,9.779c23.778,3.914,34.042,16.537,35.368,40.073c3.137,54.825,8.287,109.765,7.038,164.525
				c-1.135,49.509-7.777,99.17-29.376,145.273c-8.479,18.08-21.075,31.48-41.398,31.761c-26.215,0.369-52.607-1.263-78.706-3.991
				c-15.313-1.594-24.71-13.361-26.266-28.177c-1.657-15.606-1.721-31.71,0.332-47.227c2.078-15.874,14.178-25.857,30.153-27.349
				c11.17-1.046,22.517-0.204,34.272-0.204c0,10.162,0,19.495,0,29.517c-4.922,0.268-9.001,0.586-13.107,0.739
				c-9.728,0.37-17.225,2.703-17.021,14.93c0.217,13.184,3.123,17.238,16.728,17.8c12.138,0.522,24.353,0.535,36.452-0.357
				c10.99-0.79,17.952-7.19,17.735-18.806c-0.268-14.166-0.345-28.471-2.358-42.471c-2.436-17.136-12.432-24.85-29.631-26.686
				c-12.891-1.377-25.794-3.047-38.519-5.547C317.488,376.221,309.226,364.912,307.007,339.947z M376.52,293.83
				c14.28,1.76,27.693,3.404,41.106,5.049c1.874-15.733-4.017-25.117-17.353-26.877C386.529,270.205,378.777,277.332,376.52,293.83z
				"/>
		</g>
	</g>
</g>
<linearGradient id="SVGID_3_" gradientUnits="userSpaceOnUse" x1="152.3564" y1="528.6074" x2="152.3564" y2="533.8848" gradientTransform="matrix(12.75 0 0 -12.75 -1767.875 6916.875)">
	<stop  offset="0" style="stop-color:#000000"/>
	<stop  offset="1" style="stop-color:#000000"/>
</linearGradient>
<path fill="url(#SVGID_3_)" d="M142.495,176.938c19.227-20.107,41.476-43.337,64.184-67.091c0,19.495-0.332,37.574,0.152,55.616
	c0.229,8.619-2.41,11.934-11.475,11.653C176.358,176.518,157.297,176.938,142.495,176.938z"/>
</svg>
